<mxfile host="app.diagrams.net" modified="2025-01-15T00:00:00.000Z" agent="5.0" etag="xxx" version="24.7.17" type="device">
  <diagram name="SC1_ダッシュボード" id="SC1_dashboard">
    <mxGraphModel dx="1422" dy="794" grid="1" gridSize="10" guides="1" tooltips="1" connect="1" arrows="1" fold="1" page="1" pageScale="1" pageWidth="1200" pageHeight="800" math="0" shadow="0">
      <root>
        <mxCell id="0" />
        <mxCell id="1" parent="0" />
        
        <!-- ヘッダー -->
        <mxCell id="header" value="Torrent4.0 ダッシュボード" style="rounded=1;whiteSpace=wrap;html=1;fillColor=#3b82f6;fontColor=#ffffff;fontSize=18;fontStyle=1;strokeColor=#1e40af;" vertex="1" parent="1">
          <mxGeometry x="0" y="0" width="1200" height="64" as="geometry" />
        </mxCell>
        
        <!-- 通知アイコン -->
        <mxCell id="notification" value="🔔" style="ellipse;whiteSpace=wrap;html=1;fillColor=#fbbf24;strokeColor=#f59e0b;fontSize=16;" vertex="1" parent="1">
          <mxGeometry x="1120" y="16" width="32" height="32" as="geometry" />
        </mxCell>
        
        <!-- サイドバー -->
        <mxCell id="sidebar" value="メニュー・組織階層" style="rounded=1;whiteSpace=wrap;html=1;fillColor=#f8fafc;strokeColor=#e2e8f0;fontSize=14;fontStyle=1;align=left;verticalAlign=top;" vertex="1" parent="1">
          <mxGeometry x="0" y="64" width="240" height="736" as="geometry" />
        </mxCell>
        
        <!-- メニュー項目 -->
        <mxCell id="menu_dashboard" value="📊 ダッシュボード" style="rounded=1;whiteSpace=wrap;html=1;fillColor=#3b82f6;fontColor=#ffffff;fontSize=14;fontStyle=1;strokeColor=#1e40af;" vertex="1" parent="1">
          <mxGeometry x="16" y="96" width="208" height="40" as="geometry" />
        </mxCell>
        
        <mxCell id="menu_goals" value="🎯 目標設定" style="rounded=1;whiteSpace=wrap;html=1;fillColor=#ffffff;fontColor=#374151;fontSize=14;strokeColor=#d1d5db;" vertex="1" parent="1">
          <mxGeometry x="16" y="152" width="208" height="40" as="geometry" />
        </mxCell>
        
        <mxCell id="menu_progress" value="📈 進捗管理" style="rounded=1;whiteSpace=wrap;html=1;fillColor=#ffffff;fontColor=#374151;fontSize=14;strokeColor=#d1d5db;" vertex="1" parent="1">
          <mxGeometry x="16" y="208" width="208" height="40" as="geometry" />
        </mxCell>
        
        <mxCell id="menu_system" value="⚙️ システム管理" style="rounded=1;whiteSpace=wrap;html=1;fillColor=#ffffff;fontColor=#374151;fontSize=14;strokeColor=#d1d5db;" vertex="1" parent="1">
          <mxGeometry x="16" y="264" width="208" height="40" as="geometry" />
        </mxCell>
        
        <!-- 組織階層 -->
        <mxCell id="org_title" value="組織階層:" style="text;html=1;strokeColor=none;fillColor=none;align=left;verticalAlign=middle;whiteSpace=wrap;rounded=0;fontSize=12;fontStyle=1;" vertex="1" parent="1">
          <mxGeometry x="16" y="320" width="80" height="20" as="geometry" />
        </mxCell>
        
        <mxCell id="org_company" value="🏢 三河自動車部品" style="text;html=1;strokeColor=none;fillColor=none;align=left;verticalAlign=middle;whiteSpace=wrap;rounded=0;fontSize=12;" vertex="1" parent="1">
          <mxGeometry x="16" y="344" width="120" height="20" as="geometry" />
        </mxCell>
        
        <mxCell id="org_sales" value="  📋 営業部" style="text;html=1;strokeColor=none;fillColor=none;align=left;verticalAlign=middle;whiteSpace=wrap;rounded=0;fontSize=12;" vertex="1" parent="1">
          <mxGeometry x="16" y="368" width="80" height="20" as="geometry" />
        </mxCell>
        
        <mxCell id="org_sales1" value="    👥 営業1課" style="text;html=1;strokeColor=none;fillColor=none;align=left;verticalAlign=middle;whiteSpace=wrap;rounded=0;fontSize=12;" vertex="1" parent="1">
          <mxGeometry x="16" y="392" width="80" height="20" as="geometry" />
        </mxCell>
        
        <mxCell id="org_sales2" value="    👥 営業2課" style="text;html=1;strokeColor=none;fillColor=none;align=left;verticalAlign=middle;whiteSpace=wrap;rounded=0;fontSize=12;" vertex="1" parent="1">
          <mxGeometry x="16" y="416" width="80" height="20" as="geometry" />
        </mxCell>
        
        <mxCell id="org_manufacturing" value="  🏭 製造部" style="text;html=1;strokeColor=none;fillColor=none;align=left;verticalAlign=middle;whiteSpace=wrap;rounded=0;fontSize=12;" vertex="1" parent="1">
          <mxGeometry x="16" y="440" width="80" height="20" as="geometry" />
        </mxCell>
        
        <mxCell id="org_admin" value="  📊 管理部" style="text;html=1;strokeColor=none;fillColor=none;align=left;verticalAlign=middle;whiteSpace=wrap;rounded=0;fontSize=12;" vertex="1" parent="1">
          <mxGeometry x="16" y="464" width="80" height="20" as="geometry" />
        </mxCell>
        
        <!-- メインエリア -->
        <mxCell id="main_area" value="目標・進捗表示" style="rounded=1;whiteSpace=wrap;html=1;fillColor=#ffffff;strokeColor=#e2e8f0;fontSize=14;fontStyle=1;align=left;verticalAlign=top;" vertex="1" parent="1">
          <mxGeometry x="240" y="64" width="960" height="736" as="geometry" />
        </mxCell>
        
        <!-- 目標カード表示エリア -->
        <mxCell id="goal_cards" value="目標カード表示エリア" style="rounded=1;whiteSpace=wrap;html=1;fillColor=#f8fafc;strokeColor=#cbd5e1;fontSize=12;fontStyle=1;align=left;verticalAlign=top;" vertex="1" parent="1">
          <mxGeometry x="256" y="80" width="928" height="200" as="geometry" />
        </mxCell>
        
        <!-- 会社目標カード -->
        <mxCell id="company_goal" value="🏢 会社目標: 売上10億円&#xa;進捗: 80% [████████░░]" style="rounded=1;whiteSpace=wrap;html=1;fillColor=#dbeafe;strokeColor=#3b82f6;fontSize=12;fontStyle=1;" vertex="1" parent="1">
          <mxGeometry x="272" y="96" width="200" height="60" as="geometry" />
        </mxCell>
        
        <!-- 営業部目標カード -->
        <mxCell id="sales_goal" value="📋 営業部目標: 新規20社&#xa;進捗: 65% [██████░░░░]" style="rounded=1;whiteSpace=wrap;html=1;fillColor=#dcfce7;strokeColor=#10b981;fontSize=12;fontStyle=1;" vertex="1" parent="1">
          <mxGeometry x="488" y="96" width="200" height="60" as="geometry" />
        </mxCell>
        
        <!-- 個人目標カード -->
        <mxCell id="personal_goal" value="👤 個人目標: 訪問100件&#xa;進捗: 90% [█████████░]" style="rounded=1;whiteSpace=wrap;html=1;fillColor=#fef3c7;strokeColor=#f59e0b;fontSize=12;fontStyle=1;" vertex="1" parent="1">
          <mxGeometry x="704" y="96" width="200" height="60" as="geometry" />
        </mxCell>
        
        <!-- 進捗推移グラフ -->
        <mxCell id="progress_chart" value="進捗推移グラフ&#xa;[グラフ表示エリア]" style="rounded=1;whiteSpace=wrap;html=1;fillColor=#f0f9ff;strokeColor=#0ea5e9;fontSize=12;fontStyle=1;align=center;" vertex="1" parent="1">
          <mxGeometry x="256" y="296" width="464" height="200" as="geometry" />
        </mxCell>
        
        <!-- メンバー状況 -->
        <mxCell id="member_status" value="メンバー状況&#xa;田中健一: 90%&#xa;佐藤美咲: 95%&#xa;鈴木一郎: 85%" style="rounded=1;whiteSpace=wrap;html=1;fillColor=#fdf2f8;strokeColor=#ec4899;fontSize=12;fontStyle=1;align=left;verticalAlign=top;" vertex="1" parent="1">
          <mxGeometry x="736" y="296" width="448" height="200" as="geometry" />
        </mxCell>
        
      </root>
    </mxGraphModel>
  </diagram>
</mxfile>
